<svg width="131" height="175" viewBox="0 0 131 175" fill="none" xmlns="http://www.w3.org/2000/svg">
<path d="M16.853 2.213C16.853 3.435 15.862 4.42601 14.639 4.42601C13.417 4.42601 12.426 3.435 12.426 2.213C12.426 0.990997 13.417 0 14.639 0C15.862 0 16.853 0.990997 16.853 2.213Z" fill="#FF8C1A"/>
<path d="M45.28 2.213C45.28 3.435 44.289 4.42601 43.067 4.42601C41.844 4.42601 40.853 3.435 40.853 2.213C40.853 0.990997 41.844 0 43.067 0C44.289 0 45.28 0.990997 45.28 2.213Z" fill="#FF8C1A"/>
<path d="M71.493 4.42601C72.7152 4.42601 73.706 3.4352 73.706 2.213C73.706 0.990791 72.7152 0 71.493 0C70.2708 0 69.28 0.990791 69.28 2.213C69.28 3.4352 70.2708 4.42601 71.493 4.42601Z" fill="#FF8C1A"/>
<path d="M99.919 4.42601C101.141 4.42601 102.132 3.4352 102.132 2.213C102.132 0.990791 101.141 0 99.919 0C98.6968 0 97.706 0.990791 97.706 2.213C97.706 3.4352 98.6968 4.42601 99.919 4.42601Z" fill="#FF8C1A"/>
<path d="M128.345 4.42601C129.567 4.42601 130.558 3.4352 130.558 2.213C130.558 0.990791 129.567 0 128.345 0C127.123 0 126.132 0.990791 126.132 2.213C126.132 3.4352 127.123 4.42601 128.345 4.42601Z" fill="#FF8C1A"/>
<path d="M16.853 30.639C16.853 31.861 15.862 32.852 14.639 32.852C13.417 32.852 12.426 31.861 12.426 30.639C12.426 29.417 13.417 28.426 14.639 28.426C15.862 28.426 16.853 29.417 16.853 30.639Z" fill="#FF8C1A"/>
<path d="M45.28 30.639C45.28 31.861 44.289 32.852 43.067 32.852C41.844 32.852 40.853 31.861 40.853 30.639C40.853 29.417 41.844 28.426 43.067 28.426C44.289 28.426 45.28 29.417 45.28 30.639Z" fill="#FF8C1A"/>
<path d="M71.493 32.852C72.7152 32.852 73.706 31.8612 73.706 30.639C73.706 29.4168 72.7152 28.426 71.493 28.426C70.2708 28.426 69.28 29.4168 69.28 30.639C69.28 31.8612 70.2708 32.852 71.493 32.852Z" fill="#FF8C1A"/>
<path d="M99.919 32.852C101.141 32.852 102.132 31.8612 102.132 30.639C102.132 29.4168 101.141 28.426 99.919 28.426C98.6968 28.426 97.706 29.4168 97.706 30.639C97.706 31.8612 98.6968 32.852 99.919 32.852Z" fill="#FF8C1A"/>
<path d="M128.345 32.852C129.567 32.852 130.558 31.8612 130.558 30.639C130.558 29.4168 129.567 28.426 128.345 28.426C127.123 28.426 126.132 29.4168 126.132 30.639C126.132 31.8612 127.123 32.852 128.345 32.852Z" fill="#FF8C1A"/>
<path d="M16.853 59.065C16.853 60.287 15.862 61.2781 14.639 61.2781C13.417 61.2781 12.426 60.287 12.426 59.065C12.426 57.843 13.417 56.8521 14.639 56.8521C15.862 56.8521 16.853 57.843 16.853 59.065Z" fill="#FF8C1A"/>
<path d="M45.28 59.065C45.28 60.287 44.289 61.2781 43.067 61.2781C41.844 61.2781 40.853 60.287 40.853 59.065C40.853 57.843 41.844 56.8521 43.067 56.8521C44.289 56.8521 45.28 57.843 45.28 59.065Z" fill="#FF8C1A"/>
<path d="M71.493 61.2781C72.7152 61.2781 73.706 60.2873 73.706 59.065C73.706 57.8428 72.7152 56.8521 71.493 56.8521C70.2708 56.8521 69.28 57.8428 69.28 59.065C69.28 60.2873 70.2708 61.2781 71.493 61.2781Z" fill="#FF8C1A"/>
<path d="M99.919 61.2781C101.141 61.2781 102.132 60.2873 102.132 59.065C102.132 57.8428 101.141 56.8521 99.919 56.8521C98.6968 56.8521 97.706 57.8428 97.706 59.065C97.706 60.2873 98.6968 61.2781 99.919 61.2781Z" fill="#FF8C1A"/>
<path d="M128.345 61.2781C129.567 61.2781 130.558 60.2873 130.558 59.065C130.558 57.8428 129.567 56.8521 128.345 56.8521C127.123 56.8521 126.132 57.8428 126.132 59.065C126.132 60.2873 127.123 61.2781 128.345 61.2781Z" fill="#FF8C1A"/>
<path d="M16.853 87.4911C16.853 88.7131 15.862 89.7041 14.639 89.7041C13.417 89.7041 12.426 88.7131 12.426 87.4911C12.426 86.2691 13.417 85.2781 14.639 85.2781C15.862 85.2781 16.853 86.2691 16.853 87.4911Z" fill="#FF8C1A"/>
<path d="M45.28 87.4911C45.28 88.7131 44.289 89.7041 43.067 89.7041C41.844 89.7041 40.853 88.7131 40.853 87.4911C40.853 86.2691 41.844 85.2781 43.067 85.2781C44.289 85.2781 45.28 86.2691 45.28 87.4911Z" fill="#FF8C1A"/>
<path d="M71.493 89.7041C72.7152 89.7041 73.706 88.7133 73.706 87.4911C73.706 86.2689 72.7152 85.2781 71.493 85.2781C70.2708 85.2781 69.28 86.2689 69.28 87.4911C69.28 88.7133 70.2708 89.7041 71.493 89.7041Z" fill="#FF8C1A"/>
<path d="M99.919 89.7041C101.141 89.7041 102.132 88.7133 102.132 87.4911C102.132 86.2689 101.141 85.2781 99.919 85.2781C98.6968 85.2781 97.706 86.2689 97.706 87.4911C97.706 88.7133 98.6968 89.7041 99.919 89.7041Z" fill="#FF8C1A"/>
<path d="M128.345 89.7041C129.567 89.7041 130.558 88.7133 130.558 87.4911C130.558 86.2689 129.567 85.2781 128.345 85.2781C127.123 85.2781 126.132 86.2689 126.132 87.4911C126.132 88.7133 127.123 89.7041 128.345 89.7041Z" fill="#FF8C1A"/>
<path d="M16.853 115.917C16.853 117.139 15.862 118.13 14.639 118.13C13.417 118.13 12.426 117.139 12.426 115.917C12.426 114.695 13.417 113.704 14.639 113.704C15.862 113.704 16.853 114.695 16.853 115.917Z" fill="#FF8C1A"/>
<path d="M45.28 115.917C45.28 117.139 44.289 118.13 43.067 118.13C41.844 118.13 40.853 117.139 40.853 115.917C40.853 114.695 41.844 113.704 43.067 113.704C44.289 113.704 45.28 114.695 45.28 115.917Z" fill="#FF8C1A"/>
<path d="M71.493 118.13C72.7152 118.13 73.706 117.139 73.706 115.917C73.706 114.695 72.7152 113.704 71.493 113.704C70.2708 113.704 69.28 114.695 69.28 115.917C69.28 117.139 70.2708 118.13 71.493 118.13Z" fill="#FF8C1A"/>
<path d="M99.919 118.13C101.141 118.13 102.132 117.139 102.132 115.917C102.132 114.695 101.141 113.704 99.919 113.704C98.6968 113.704 97.706 114.695 97.706 115.917C97.706 117.139 98.6968 118.13 99.919 118.13Z" fill="#FF8C1A"/>
<path d="M128.345 118.13C129.567 118.13 130.558 117.139 130.558 115.917C130.558 114.695 129.567 113.704 128.345 113.704C127.123 113.704 126.132 114.695 126.132 115.917C126.132 117.139 127.123 118.13 128.345 118.13Z" fill="#FF8C1A"/>
<path d="M16.853 144.343C16.853 145.565 15.862 146.556 14.639 146.556C13.417 146.556 12.426 145.565 12.426 144.343C12.426 143.121 13.417 142.13 14.639 142.13C15.862 142.13 16.853 143.121 16.853 144.343Z" fill="#FF8C1A"/>
<path d="M45.28 144.343C45.28 145.565 44.289 146.556 43.067 146.556C41.844 146.556 40.853 145.565 40.853 144.343C40.853 143.121 41.844 142.13 43.067 142.13C44.289 142.13 45.28 143.121 45.28 144.343Z" fill="#FF8C1A"/>
<path d="M71.493 146.556C72.7152 146.556 73.706 145.565 73.706 144.343C73.706 143.121 72.7152 142.13 71.493 142.13C70.2708 142.13 69.28 143.121 69.28 144.343C69.28 145.565 70.2708 146.556 71.493 146.556Z" fill="#FF8C1A"/>
<path d="M99.919 146.556C101.141 146.556 102.132 145.565 102.132 144.343C102.132 143.121 101.141 142.13 99.919 142.13C98.6968 142.13 97.706 143.121 97.706 144.343C97.706 145.565 98.6968 146.556 99.919 146.556Z" fill="#FF8C1A"/>
<path d="M128.345 146.556C129.567 146.556 130.558 145.565 130.558 144.343C130.558 143.121 129.567 142.13 128.345 142.13C127.123 142.13 126.132 143.121 126.132 144.343C126.132 145.565 127.123 146.556 128.345 146.556Z" fill="#FF8C1A"/>
<path d="M16.853 172.769C16.853 173.991 15.862 174.982 14.639 174.982C13.417 174.982 12.426 173.991 12.426 172.769C12.426 171.547 13.417 170.556 14.639 170.556C15.862 170.556 16.853 171.547 16.853 172.769Z" fill="#FF8C1A"/>
<path d="M45.28 172.769C45.28 173.991 44.289 174.982 43.067 174.982C41.844 174.982 40.853 173.991 40.853 172.769C40.853 171.547 41.844 170.556 43.067 170.556C44.289 170.556 45.28 171.547 45.28 172.769Z" fill="#FF8C1A"/>
<path d="M71.493 174.982C72.7152 174.982 73.706 173.991 73.706 172.769C73.706 171.547 72.7152 170.556 71.493 170.556C70.2708 170.556 69.28 171.547 69.28 172.769C69.28 173.991 70.2708 174.982 71.493 174.982Z" fill="#FF8C1A"/>
<path d="M99.919 174.982C101.141 174.982 102.132 173.991 102.132 172.769C102.132 171.547 101.141 170.556 99.919 170.556C98.6968 170.556 97.706 171.547 97.706 172.769C97.706 173.991 98.6968 174.982 99.919 174.982Z" fill="#FF8C1A"/>
<path d="M128.345 174.982C129.567 174.982 130.558 173.991 130.558 172.769C130.558 171.547 129.567 170.556 128.345 170.556C127.123 170.556 126.132 171.547 126.132 172.769C126.132 173.991 127.123 174.982 128.345 174.982Z" fill="#FF8C1A"/>
</svg>
