<svg width="24" height="25" viewBox="0 0 24 25" fill="none" xmlns="http://www.w3.org/2000/svg">
<path d="M12 19C15.5899 19 18.5 16.0899 18.5 12.5C18.5 8.91015 15.5899 6 12 6C8.41015 6 5.5 8.91015 5.5 12.5C5.5 16.0899 8.41015 19 12 19Z" stroke="black" stroke-opacity="0.15" stroke-width="1.5" stroke-linecap="round" stroke-linejoin="round"/>
<path d="M12 19C15.5899 19 18.5 16.0899 18.5 12.5C18.5 8.91015 15.5899 6 12 6C8.41015 6 5.5 8.91015 5.5 12.5C5.5 16.0899 8.41015 19 12 19Z" stroke="white" stroke-opacity="0.6" stroke-width="1.5" stroke-linecap="round" stroke-linejoin="round"/>
<path d="M19.14 19.64L19.01 19.51M19.01 5.49L19.14 5.36M4.86 19.64L4.99 19.51M12 2.58V2.5M12 22.5V22.42M2.08 12.5H2M22 12.5H21.92M4.99 5.49L4.86 5.36" stroke="black" stroke-opacity="0.15" stroke-width="2" stroke-linecap="round" stroke-linejoin="round"/>
<path d="M19.14 19.64L19.01 19.51M19.01 5.49L19.14 5.36M4.86 19.64L4.99 19.51M12 2.58V2.5M12 22.5V22.42M2.08 12.5H2M22 12.5H21.92M4.99 5.49L4.86 5.36" stroke="white" stroke-opacity="0.6" stroke-width="2" stroke-linecap="round" stroke-linejoin="round"/>
</svg>
